<?xml version="1.0" encoding="utf-8"?>
<!-- Generator: Adobe Illustrator 24.0.0, SVG Export Plug-In . SVG Version: 6.00 Build 0)  -->
<svg version="1.1" id="Layer_1" xmlns="http://www.w3.org/2000/svg" xmlns:xlink="http://www.w3.org/1999/xlink" x="0px" y="0px"
	 viewBox="0 0 864 864" style="enable-background:new 0 0 864 864;" xml:space="preserve">
<style type="text/css">
	.st0{fill:#FFFFFF;}
	.st1{fill:#2A79AA;}
	.st2{fill:#D37A3C;}
</style>
<g>
	<path d="M358.3,25.7c2.8,0,8.2,0.4,13.9,3.5c6.1,3.4,9.2,8,9.8,8.9c1.7,2.6,2.6,4.5,3.2,7.3c0.7,3.6,0.5,7.3,0,10.9
		c-0.2,1.6,0.3,2.2,1.7,2.3c0.5,0.1,1,0.1,1.6,0.1c5.7,0.2,11.3,0.2,16.8-1.4c3-0.8,4,0.2,4.3,3.3c0.4,4.7,0.2,3.8,4,4.4
		c4.4,0.7,9.2,2.9,9.7,9.2c0.2,2.7,1.8,4.5,4.3,5.5c2.1,0.9,4.3,1.5,6.6,1.3c0.4,0,1-0.2,1.1,0.4c0.1,0.3-0.2,0.7-0.5,1
		c-0.8,1-1.5,2-2.4,2.8c-2.1,1.8-3,3.8-1,6.3c0.4,0.5,0.5,1.3,0.8,2c1.8,5.6,1.3,11.1-0.5,16.5c-2.3,7.2-1.7,14.2,1.1,21.1
		c0.8,2.1,1.8,4.1,2.6,6.1c0.8,2,0.2,2.8-1.9,2.9c-1,0-2.1,0.1-3.1,0c-1.9-0.2-2.8,0.7-3.6,2.3c-2.8,6-3.5,12.2-2.2,18.6
		c1.8,9.2,5.4,17.8,8.5,26.5c1.5,4.2,4.2,7.2,7.9,9.6c4.3,2.7,4.3,2.8,0.6,6.2c-1,1-1.2,1.9-0.7,3.1c1,2.4,1.8,4.9,2.8,7.3
		c1.9,4.7,3,9.9,8,12.7c0.9,0.5,0.6,1.2-0.1,1.7c-1,0.8-1.9,1.5-2.9,2.3c-0.5,0.4-1.3,0.7-1.2,1.4c0.1,0.7,1,0.7,1.6,0.9
		c4.1,1.6,8.4,2.9,12.3,5c1.5,0.8,1.5,1.5,0.6,2.7c-0.9,1.1-1.5,2.3-2.4,3.3c-1,1.1-0.9,2.1,0,3.3c3.6,5.3,7,10.6,10.6,15.9
		c0.9,1.3,0.7,1.9-1,2.1c-2.2,0.2-4.3,0.6-6.8,1c1.3,1.3,2.4,2,3.6,2.6c5.6,3.1,11.4,3,17.4,1.8c2.1-0.4,2.3-0.3,1.7,1.9
		c-0.7,2.4-1.4,4.9-2.1,7.3c-0.3,1.1-0.1,1.7,1.1,2c3,0.9,5.9,1.9,8.9,2.9c5.4,1.7,10.7,1.9,15.9-0.7c1.3-0.7,1.9-0.2,2.1,1.1
		c0.4,2.1,0.6,4.2,1.5,6.4c2.7-3.7,5.2-7.2,7.7-10.7c2.7-3.7,2.7-3.7,5.3,0c0,0.1,0.1,0.1,0.1,0.2c0.3,0.4,0.5,1,1.2,0.9
		c0.6-0.2,0.5-0.9,0.5-1.3c-0.1-2-0.2-4-0.4-6c-0.1-1.2,0.1-1.9,1.4-2c1.1,0,1.6-0.7,1.8-1.7c0.7-2.8,1.5-5.7,2.1-8.5
		c0.5-2.5,1.1-5.1,1.2-7.7c0.1-3.9-1.6-7.3-4.6-9.7c-6-4.8-10.4-10.4-11.4-18.2c-0.1-1-0.6-2-1-2.9c-1.3-3.3-3.8-5.5-7.3-5.6
		c-2.9-0.1-4.7-1.1-6-3.5c-0.7-1.2-1.6-1.3-2.8-0.7c-2.4,1.1-4.9,2.1-7.4,3.1c-4.8,2-3.8,1.7-4.6-2.5c-0.4-1.9-0.4-2-2.2-0.8
		c-3.8,2.5-7.6,5.1-11.3,7.6c-1.2,0.8-1.7,0.8-1.9-0.9c-0.4-4-0.1-8.1,0.2-12.1c0.2-3.3-0.9-5.9-3.6-7.7c-4.7-3.1-9.1-6.6-14.2-8.9
		c-4.5-2.1-7.3-5.4-9.6-9.5c-6.3-10.9-9.5-22.7-10-35.3c-0.2-4.1,2-5.9,6-4.8c2.8,0.8,5.5,1.4,8.4,1.8c4.3,0.6,4.2,0.6,4.3-3.7
		c0-2.1-0.8-4.4,0.4-6.1c1.2-1.6,3.6-1.6,5.5-2.2c3-1.1,4-2.8,3.2-5.9c-1.3-4.5-0.6-8.3,2.9-11.5c1.2-1.1,2.1-2.4,1.7-4.3
		c-1.2-5.1,0-8,4.6-10.5c5.5-3,11.4-3.3,17.4-2.4c9.9,1.5,19.4,4.1,28.5,8.4c1.7,0.8,2.8,0.7,3.7-1.1c1.9-3.4,4.8-5.5,8.8-6.2
		c1.9-0.3,2.4,0.1,2.2,2c-0.1,1.4-0.3,2.7-0.6,4.1c-0.7,4.4-0.6,8.7,1.4,12.8c1.7,3.5,3.9,6.6,5.9,9.9c0.6,1,1.6,1.3,2.7,1.2
		c2.1-0.2,4.2-0.3,6.2-0.6c5.9-0.9,10.8,0.4,14.5,5.4c0.6,0.8,1.3,1.6,2,2.4c0.4,0.4,0.6,1.2,1.3,1c0.6-0.2,0.6-1,0.7-1.5
		c1.5-5.5,4-10.5,8.1-14.5c5.6-5.5,11.5-10.3,20.1-9.3c1.1,0.1,2.6-0.2,3.1,0.7c0.4,0.9-0.9,1.7-1.5,2.5c-2.7,3.9-4.5,8.1-3.9,12.9
		c0.9,7.5,4.7,13.4,10.5,18.1c7.6,6.1,12,13.7,12.3,23.5c0,1.2,0.5,1.5,1.6,1.1c1.7-0.6,3.4-1,5-1.7s2.1-0.1,2,1.5
		c-0.1,1.8-0.2,3.6-0.3,5.5c-0.3,6.4-0.6,12.8-1,19.3c0,0.9,0.2,1.6,0.9,2.2c4.8,3.8,5.9,9,5.5,14.7c-0.2,3.7-1,7.3-1.5,11
		c-0.9,6.1-1.7,12.2-2.5,18.3c-0.1,0.7-0.8,2.1,1,1.8c4.2-0.7,5.6,1.9,5.3,5.9c-0.4,7.7-1,15.3-1.6,22.9c-0.1,1.3,0.3,1.7,1.6,1.4
		c1.4-0.3,2.8-0.5,4.2-0.7c2.2-0.3,2.3-0.2,1.9,1.9c-1.5,8.4-3.1,16.7-4.6,25.1c-0.1,0.8-0.8,1.9,0.1,2.3c1,0.5,1.2-0.9,1.6-1.5
		c0.8-1.3,1.4-1.3,2.3-0.1c3.7,4.8,5.3,10.2,4.6,16.3c-0.6,5.8-2.7,11.2-4.3,16.8c-1.2,4.4-0.9,3.6,2.4,4.3c0.4,0.1,0.8,0.2,1.1,0.3
		c2.3,0.8,3,2.1,2.1,4.4c-0.5,1.3-1.2,2.6-1.8,3.9c-2.8,6.3-5.3,12.7-7.2,19.3c-2.3,8.2-6,16-8.2,24.3c-1.6,6.1-6.6,9.7-12.1,12.3
		c-1.6,0.7-1.9,1.2-0.8,2.8c1.9,2.6,1.3,5-1.5,6.8c-0.7,0.4-1.5,0.8-2.3,1.1c-8.9,3.7-18.1,7-27.1,10.4c-1.6,0.6-2.1,1.5-2,3.1
		c0.2,3.1,2.1,4.9,4.4,6.5c5.7,4.1,5.7,6.9,0.2,11.2c-1.3,1-1.6,2-1.1,3.5c1.3,4.6,3.9,8.5,6.9,12.1c2.5,3,4.9,6.1,7.4,9.1
		c0.9,1.1,0.8,1.8-0.6,2.2c-0.9,0.3-1.8,0.8-2.7,1c-1.5,0.4-1.8,1.2-1.3,2.6c1.3,4.4,2.6,8.9,3.8,13.3c0.4,1.4,1.6,2.8,0.5,4.2
		c-1.4,1.7-3.2,0.5-4.7,0c-1.4-0.4-2,0-2.4,1.4c-1.8,6.1-0.4,11.4,4.1,15.9c1.7,1.7,3.4,3.2,5.2,4.7c0.4,0.3,1,0.6,0.9,1.2
		c-0.1,0.7-0.8,0.5-1.3,0.6c-2,0.4-3.9,0.9-5.9,1.2c-2.1,0.3-2.8,1.2-2.8,3.3c0.2,10.3-0.1,20.5-3.1,30.5c-1.4,4.7-0.9,9.3,2,13.4
		c0.6,0.8,0.4,1.6,0.1,2.4c-1,2.5-3.2,3.1-5.5,3.3c-1.7,0.1-2.6,0.8-2.8,2.5c-1.1,8,3.1,14,10.9,15.6c3,0.6,6.1,0.4,9.1,0.4
		c0.6,0,1.3-0.2,1.6,0.3c0.4,0.7-0.3,1.2-0.6,1.7c-0.7,1.2-1.5,2.3-2.3,3.4c-2.8,4.2-3,2.9,0.3,6.7c5.9,6.9,11.6,13.9,15.5,22.3
		c2.7,5.9,7.5,9.8,13.9,11.4c1.7,0.4,1.6,1.1,0.7,2.3c-1.4,1.8-2.7,3.8-4.2,5.6c-0.8,1-0.8,1.8,0,2.9c1.8,2.4,3.6,4.9,5.3,7.5
		c2.2,3.3,3.9,6.9,4.2,10.8c0.4,4.3,2.1,8,4.6,11.4c1.7,2.3,3.4,4.6,5,7c0.4,0.6,1.1,1.3,0.4,1.9c-1.8,1.5-1,3.1-0.7,4.8
		c0.8,4.7,2.2,9.2,2.1,14c0,2.6-1.2,3.7-3.7,3.6c-0.8,0-1.6-0.2-2.3-0.4c-1.4-0.4-1.6,0-1.1,1.3c1.8,4.9,3.6,9.9,5.3,14.9
		c1,2.9,0.1,4.3-3,4.8c-2.1,0.3-4-0.2-5.9-0.9c-1.3-0.5-1.8-0.1-2.2,1.2c-1.3,4.4-2.7,8.7-4.1,13c-1.5,4.6-1.5,4.6-5.5,2.2
		c-1.2-0.7-1.8-0.7-2.3,0.7c-0.9,2.4-2,4.7-3,7c-0.8,2-0.7,2.1,1.4,2.4c7.1,0.9,14.3,1.9,21.4,2.8c1.9,0.2,2.7,0.9,2,2.9
		c-0.6,1.9,0.2,2.7,2.1,3c3,0.4,5.6,1.7,8,3.7c3.6,2.9,6.4,6.3,7.8,10.9c1.8,5.9,5.5,10.1,11.4,12.2c0.4,0.1,0.7,0.3,1.1,0.4
		c1.9,0.8,2,1,0.6,2.5c-1.8,2-3.6,4.1-5.6,6c-1.2,1.2-0.9,1.7,0.6,2.1c2.1,0.7,2.3,1.2,1.4,3.3c-1.1,2.6-3.1,4.3-5.4,5.7
		c-2.1,1.2-4.2,2.3-6.2,3.7c-5.8,4.2-12.2,7.5-18.3,11.2c-3.2,2-6.7,3.5-10.5,3.9c-4.1,0.4-8.1,1-12.1,1.9c-9.5,2.2-19,3.8-28.8,2.9
		c-2.6-0.2-5.2-0.1-7.8,0c-6.5,0.4-13,0.3-19.4-1.2c-5.8-1.3-11.4-3.2-17.2-4.5c-4.2-0.9-8.5-0.9-12.7-1.8
		c-14.2-3.1-28.4-6.4-42.6-9.7c-9.1-2.1-18.2-3.8-27.1-6.4c-6.4-1.8-10.1-6.1-10.6-12.8c-0.4-5.6-1.5-10.6-6.3-14.2
		c-1.7-1.3-1.5-1.7,0.6-2.3c6.2-1.8,9.9-5.9,11.3-12.2c0.2-1,0.5-2,0.6-3.1c0.5-5,2.1-9.6,4.8-13.9c4.6-7.4,9.1-14.9,13.6-22.3
		c0.3-0.5,1-1,0.5-1.5c-0.4-0.5-1.1-0.2-1.7-0.1c-1.6,0.5-2.3-0.1-2.5-1.7c-0.3-1.7-0.7-3.4-1-5.2c-1.1-5.8-2.1-11.6-4.3-17.2
		c-1.1-2.9-2.5-5.6-4.9-7.7c-5.3-4.6-11.5-4.7-17.9-3.4c-1.1,0.2-1.4,1.1-1.5,2c-0.2,1.3-0.5,2.7-0.6,4c-0.2,1.4-0.8,1.9-2.2,1.3
		c-1.7-0.7-3.5-1.3-5.3-1.9c-9.7-3.1-18.7,2.7-20,12.7c-0.7,5.1-0.2,10.3-0.3,15.4c-0.1,2.5-0.2,2.6-2.7,2.3c-0.7-0.1-1.5-0.4-2,0.2
		c-0.7,0.8,0.1,1.5,0.5,2.1c3.5,6.4,7,12.8,11.2,18.7c3.5,5,5.5,10.5,5.5,16.8c0,3.8,1.7,7,4.2,9.8c2.3,2.5,5.2,4.1,8.3,5.4
		c1.2,0.5,1.4,1,0.5,1.9c-1.1,1.1-2.2,2.3-3.1,3.5c-1,1.4-3.1,2.1-3.4,3.5c-0.4,1.6,0.4,3.6,0.5,5.4c0.6,6.3-1.8,10.7-7.5,13.5
		c-1.7,0.9-3.6,1.5-5.5,2.1c-16,4.7-32.2,8.3-48.4,12.1c-6.9,1.7-14,2.2-21,3.3c-7.7,1.2-15,3.8-22.4,5.9c-2.8,0.8-5.5,1.4-8.4,1.4
		c-12.4,0-24.8,0-37.3,0c-1.7,0-3.4-0.2-5-0.7c-6.4-2.3-13.2-2.9-19.9-3.6c-10.4-1-19.5-4.8-26.6-12.8c-1.4-1.6-3-2.6-4.9-3.3
		c-1.5-0.5-2.9-1.1-4.3-1.7c-3.5-1.7-6.3-4.2-7.8-7.8c-0.8-1.9-0.7-2.2,1.3-2.6c0.8-0.2,1.6-0.2,2.4-0.7c-0.3-0.7-0.8-0.9-1.3-1.2
		c-2.8-1.5-4.3-4-5.6-6.8c-0.5-1.1-0.3-1.6,0.8-2c7.4-2.5,11.5-7.9,13-15.4c1-4.9,4.1-8,8.7-9.7c2.1-0.7,4.2-1.4,6.3-1.9
		c1.9-0.4,2.7-1.3,2.1-3.3c-0.4-1.5,0.2-2.3,1.8-2.4c2.5-0.3,5-0.7,7.5-1.1c4.6-0.7,9.1-1.3,13.7-2c2.1-0.3,2.2-0.5,1.2-2.5
		c-0.9-1.9-1.8-3.7-2.6-5.7c-0.6-1.4-1.2-2-2.9-1.5c-2.3,0.7-4-0.1-5.3-2.2c-0.9-1.4-1.4-2.9-1.8-4.5c-0.7-2.6-1.3-5.3-1.6-8
		c-0.2-1.6-0.9-2.5-2.6-2.3c-1.5,0.1-3,0-4.5,0c-3.7,0-4.6-1-4.1-4.7c0.1-0.8,0.4-1.5,0.7-2.2c1.5-3.5,3-7.1,4.5-10.6
		c0.6-1.4,0.5-2.1-1.2-2c-1.2,0.1-2.5,0-3.7,0c-2.5,0-2.5,0-2.2-2.6c0-0.3,0.1-0.5,0.1-0.8c0.8-5.6,1.6-11.2,2.5-16.8
		c0.1-0.9,0-1.5-0.7-2.1c-2.2-2-2.1-2-0.1-4c0.4-0.4,0.7-0.7,1.1-1.1c5.9-4.8,8.8-11.3,9.8-18.7c0.3-2.1,0.6-4.3-1-6.1
		c-2.9-3.5-5.8-7-8.7-10.5c-0.6-0.7-1.3-1-2.2-0.8c-2.5,0.5-5,0.9-7.5,1.3c-0.6,0.1-1.3,0.3-1.6-0.2c-0.3-0.5,0.1-1,0.3-1.4
		c2.9-6.1,2.7-12.2,0.4-18.4c-1.3-3.5-3-6.9-4.1-10.5c-0.8-2.4-2-4.3-3.9-5.9c-1.7-1.5-3.3-3.1-4.9-4.7c-1.6-1.5-2.5-3.3-2.9-5.4
		c-1.3-6.7-2.4-13.4-3.1-20.2c-0.3-2.9-1.2-4.9-4.4-5.3c-0.8-0.1-1.6-0.6-2.4-0.8c-1.7-0.4-1.8-1.2-1.1-2.7
		c1.7-3.4,3.3-6.9,4.9-10.4c0.7-1.4,0.6-2.7-0.1-4.1c-2-4-2.9-8.3-2.9-12.8c0-6.5,1.5-12.8,2.5-19.1c0.3-1.5-0.2-2.2-1.6-2.5
		c-2.3-0.5-4.6-1.1-6.8-1.6c-0.8-0.2-1.5-0.7-1.6-1.5c-0.1-0.9,0.8-0.9,1.3-1.1c9.6-3.3,11.5-11.2,10.5-20.3
		c-0.1-1.3-0.6-1.4-1.6-0.5c-1.8,1.6-3.6,3.1-5.5,4.7c-0.6,0.5-1.2,1-2.1,0.6c-0.9-0.4-0.8-1.1-0.8-1.8c-0.2-5.3-2-10-5.6-14
		c-1.5-1.7-3.1-3.1-4.6-4.8c-1.1-1.2-2.3-2-3.9-2.4c-5.6-1.5-9.6-4.9-12.1-10.2c-1.3-2.7-2.2-5.6-2.7-8.5c-0.3-1.6-1-2.3-2.6-2.6
		c-2.9-0.5-5.7-1.3-8.6-1.9c0-0.3,0-0.5,0-0.8c2-4.8,3.5-9.8,5.4-14.6c1.6-4.2,1.1-8.1-0.2-12.2c-0.4-1.2-0.7-2.4-1.1-3.5
		c-0.2-0.7-0.3-1.4-0.1-2.1c1.6-5.8,2-11.8,3-17.7c1.2-6.7,3.5-12.9,8.9-17.5c2.2-1.9,2.2-1.9-0.5-3.3c-2.6-1.3-5-2.8-6-5.8
		c-0.7-2.1-0.4-2.6,1.8-3c4.3-0.8,8.7-1.6,13-2.6c3.3-0.8,4.9-2.9,5.5-6.1c0.6-3.7,2-7,4.3-9.9c2-2.5,4.3-4.6,7-6.5
		c4.8-3.4,9.9-6.4,15-9.6c0.5-0.3,1.7-0.7,0.5-1.5c-2.5-1.7-3-4.3-3.4-6.9c-0.4-2.2-0.2-2.4,2.1-2.6c4-0.3,7.8-1.4,11.7-2.1
		c0.9-0.2,1.2-0.5,0.8-1.6c-0.7-2-1.2-4.4,0.1-6.2c3.9-5.3,8.1-10.3,13-14.8c1.3-1.2,2-2.1,1.7-3.9c-0.6-3.5,0.8-6.4,3.6-8.5
		c1.2-0.9,2.4-1.8,3.7-2.6c1.4-0.8,1.3-1.6,0.3-2.7c-1.8-2-3.5-4-5.2-6.1c-0.7-0.8-0.7-1.8-0.2-2.5c0.5-0.7,1.2-0.1,1.8,0.1
		c6.7,2.3,10.2,1.1,14.3-4.6c1.5-2.1,2.8-4.2,4.4-6.2c1.1-1.4,1.2-2.1-0.5-2.9c-2.5-1.3-4.9-2.7-7.3-4.1c-0.9-0.5-1.1-1.2-1-2.1
		c0.2-0.9,0.9-0.9,1.6-1c1.2-0.1,2.5-0.3,3.7-0.6c5.9-1.4,9-5.6,10.8-11c0.8-2.2,0.9-4.3-0.3-6.4c-0.4-0.7-0.7-1.6-0.7-2.4
		c-0.2-3.9,0.7-7.6,1.8-11.3c1-3.1,1.2-3-2-3.8c-4-1-4.7-2.7-2.4-6.1c3.2-4.8,6.1-9.7,9-14.6c2.2-3.7,2.2-3.7-1.9-4.5
		c-0.3-0.1-0.6-0.2-0.9-0.2c-1.7-0.1-1.8-1-1.4-2.4c1.2-4.3,2.4-8.6,3.5-13c0.7-2.8,0.5-5.5-1-8.1c-2.7-4.8-5.3-9.7-7.9-14.5
		c-0.7-1.3-1.6-1.6-2.9-1.3c-0.6,0.1-1.2,0.2-1.7,0.3c-1.7,0.5-2.1-0.3-1.7-1.8c1.3-5.6,0.5-11-1.5-16.2c-1.3-3.5-3.2-6.8-5.1-10.1
		c-2.6-4.4-3.1-9-1.5-13.9c0.8-2.3,1.7-4.5,2.8-6.6c0.8-1.7,0.9-3.1-0.8-4.4c-1.3-1-2-2.5-2.5-4.1c-0.8-2.8,0.1-4.4,2.8-5.2
		c1.3-0.4,2.7-0.5,4-0.8c2.2-0.4,4.3-1,6.4-2.4c-1.1-0.8-2.2-0.8-3.1-1.2c-0.6-0.2-1.5-0.1-1.6-0.9c-0.1-0.6,0.6-0.9,1.1-1.3
		c3.9-3.1,7.8-6.3,11.8-9.3c1.6-1.2,2.4-2.5,2.3-4.5c-0.1-2.8,1.1-3.6,4-3.2c2.3,0.4,4.5,1.2,6.9,1.3c1.5,0.1,2.2-0.4,1.7-2.1
		c-1.1-3.7-1.8-7.4-2.1-11.3c-0.5-6.6,2.1-12.3,2.8-13.6c2.8-4.8,6.8-7.2,8.2-8c12.8-7.4,28.4,0.3,30.3,2.7c0.9,1.2,2.2,2,3.2,3.1
		c1,1.1,1.6,1.1,2.3-0.3C341.8,33.1,348.3,27.1,358.3,25.7z M456.3,95.5c-4.1-2-10.6-0.4-13.4,3.3c-0.8,1.1-0.9,2.1,0.1,3.1
		c2.3,2.4,5.3,3.9,8.1,5.6c0.3,0.2,0.6,0.2,0.9,0.1c2-0.5,4.1-0.9,6-1.5c1.7-0.5,2.5-2,2.6-3.9C460.4,99.3,459.1,96.9,456.3,95.5z"
		/>
	<path class="st0" d="M292.3,61c-1.3-8.3,2.8-17.4,10.2-22.1c7.6-4.9,15.6-3.4,18.4-2.7c5.6,1.5,10.7,5.4,14.6,11.5
		c0.4,0.6,0.3,1.6,0.4,2.3c3.5-9.3,7.7-15.2,13.3-18.2c2.7-1.5,8-3.6,14.6-2.6c7.4,1.1,14.6,5.8,18.2,13.5c4.5,9.7,0.5,18.7-0.1,20
		c-6.8,8.9-17.4,13.1-27,10.8c-8.1-1.9-12.7-7.8-14.2-9.9c-1.9,2.3-3.9,4.7-5.8,7c-2.1,2.6-7.3,7.4-12.3,9
		C312.5,83,294.6,75.5,292.3,61z M354.7,44.4c-5.9,0-9.5,3.5-9.4,8.1c0.1,5.1,3.4,7.4,7.9,7.9c4.1,0.5,8.3-3.8,8-8.2
		C360.9,47.5,358.6,44.5,354.7,44.4z M322.1,73.3c4.4-0.1,8-3.5,8-7.7c0-4.3-4.2-8.5-8.3-8.2c-4.6,0.3-7.9,3.7-7.6,8
		C314.4,69.4,318.4,73.4,322.1,73.3z"/>
	<path class="st1" d="M373.5,72.3c4.7-2.5,7.8-5.9,9.8-8.7c4.9-0.1,10.5-0.5,16.5-1.6c2.6-0.5,5.1-1,7.4-1.6c-1.2,2.9-2.3,5.3-3.4,8
		c6.3-0.8,12-0.7,16.7,4.7c-1.4,0.5-2.4,0.8-4.4,1.4c4.5,3.8,8.5,7.2,12.9,10.9c-2.3,0.2-4.6,0.3-7.7,0.6c9.4,6.3,9.9,14.8,7.7,24.3
		c-1.1-0.5-1.9-0.8-3.2-1.4c1.7,9.8,3.3,19.4,4.9,28.9c-1.1-0.7-3.1-1.9-4.7-2.8c-2.5,9.4-5,18.7-7.5,28c-0.7-0.2-1.5-0.4-2.2-0.5
		c0.3-2,0-4.5,1-5.9c2.1-2.8,3.4-4.8,0.5-8.1c-3.3-3.7-7.3-4.3-11.2-2.8c-2.3,0.9-3.6,4.1-5.4,6.2c2.2,1.5,4.2,3.5,6.6,4.4
		c2.1,0.7,4.6,0.2,7.5,0.2c-0.9,8-4.8,13.5-11.1,18.5c-0.5-1.8-0.8-3.2-1.2-4.5c-4.1,5.1-8.2,10.1-12.3,15.2
		c0.3,0.4,0.6,0.8,0.9,1.1c9.9-8,19.9-15.9,29.3-23.5c3,7.3,7.7,15,9.2,23.4c1.2,6.9,4.5,10.6,9.7,14.6c-2.2,0-4.5,0-8.1,0
		c2.3,3.4,4.1,5.8,5.7,8.3c2.1,3.3,4.1,6.7,5.9,10.2c0.6,1.1,0.1,2.8,0.1,5.3c0.5,0.4,2,1.9,4.1,3.9c-2.5,0-4.1,0-6.2,0
		c2.9,8.9,10.8,9.5,18.3,11.4c-2.8,5.8-7.8,4.4-13.9,4.5c9.8,4.5,17.7,8.8,20.5,19.8c-3.7-0.4-7-0.8-10.2-1.2
		c3.8,9.9,12.1,13.4,28,10.6c-3.2,3.9-5.5,6.7-8.2,9.9c10.2,2.4,20.7,4.8,32,7.4c-2.2,1.3-4.7,2.8-6.9,4c9.5,4.6,15,1.7,22-13
		c0.8,4.2,1.4,7.3,2,10.5c0.5,0.1,0.9,0.2,1.4,0.3c1.3-4.9,2.5-9.8,3.9-15c0.7,0.2,2,0.7,2.4,0.8c0.8-6.7,1.5-13.3,2.5-19.9
		c0.1-0.7,2.1-1,4.1-2c-1.4-2.9-2.9-6-4.7-9.7c1.9,0.5,3.3,0.8,4.7,1.1c0.2-0.4,0.4-0.8,0.6-1.3c-2.2-1.4-4.4-2.9-6.6-4.3
		c-6-3.6-10.8-8.3-12.3-15.2c-1.6-7.4-5.4-11.6-13.7-11.4c1-1.4,1.7-2.4,2.5-3.4c-0.1-0.6-0.3-1.2-0.4-1.8
		c-5.6,0.7-11.2,1.4-16.9,2.1c0.3-0.9,0.8-2.3,1.9-5.6c-7.1,3.5-12.9,6.4-18.6,9.3c-1.2-6.2,2.4-11.6,8.6-13.1
		c3.6-0.9,7-2.4,10.5-3.7c1.3-0.4,2.6-1.4,3.7-1.3c11.2,1.3,19.6-4.1,27.4-11.1c1.1-1,3.2-1.1,4.8-1.2c3.3-0.2,6.6-0.1,10.1-0.8
		c-4-1-8-1.9-12.2-2.9c3.6-8.8,10.7-9.2,18.1-9.5c7.1-0.3,13.7-1.9,16.8-9.5c0,0,0.1-0.4,0.1-0.4c3.7-1.8,4.9,1.4,6.5,3.3
		c1.8,2.2,3,4.9,4.6,7.7c1.6-10.1-12.1-15-8-26.9c1.4,2.4,2.2,3.8,2.7,4.8c1.1-8.4,2.3-16.9,3.4-25.4c0.7,0.1,1.4,0.1,2.1,0.2
		c0.1,1.5,0.3,2.9,0.5,6.2c3.1-10.4,6.7-18.6,17.3-18.4c-1.8,5.7-3.6,11.7-5.5,17.6c0.5,0.2,1,0.4,1.5,0.5c0.2-0.5,0.5-1.1,0.8-1.8
		c3.7,7.4,7.3,14.7,11.1,22.3c0.4-1.1,0.7-2.2,1.3-3.9c7.7,9.3,12.6,19,10,32.5c3.9-4.5,6.7-7.7,9-10.3c0,12.5,0,25,0,37.6
		c0.3,0,0.6,0.1,1,0.1c1.1-2.1,2.3-4.2,4.1-7.6c1.4,18.3-6.4,34.8-1.4,53c1.3-3.3,2.2-5.5,3.1-7.6c0.6,0.1,1.2,0.2,1.7,0.3
		c-1,11.9-2,23.8-3,35.8c0.4,0.1,0.8,0.2,1.1,0.3c1.7-2.1,3.5-4.3,5.3-6.5c-0.8,11.7-1.5,23-2.3,34.3c0.8,0.2,1.7,0.4,2.5,0.7
		c1.3-1.9,2.6-3.7,4.2-6c5,13.4-4,24.9-4,37.5c2.2-0.9,4-1.6,5-2c-2.5,8.3-4.4,16.6-7.6,24.4c-2.4,6-6.5,11.3-9.6,16.3
		c1.2,0.4,3.6,1.2,6,2c-3.3,3.9-6.1,8.3-10,11.5c-4.2,3.5-9.4,5.9-14,8.7c2,0.6,4.8,1.4,8.8,2.7c-7.3,5.6-14.6,2.8-22.6,3.7
		c3,1.4,4.8,2.3,6.6,3.1c0.1,0.6,0.2,1.2,0.2,1.8c-5.2,0.7-10.3,1.6-15.5,1.9c-1,0.1-2.3-2.1-3.2-3.5c-3.3-4.7-6.4-9.4-9.6-14.1
		c-0.8-1.1-2.2-2.1-2.3-3.3c-1.3-11.4-8.2-18.8-17.5-24.5c-0.5-0.3-0.9-0.8-0.9-0.8c2.7-3.9,5.4-7.8,8.9-12.9
		c-12.1-1.1-19.4-6.2-25.3-14.3c-3.6-4.9-9.3-8.3-14.1-12.3c1.8-2.3,3.8-4.8,5.8-7.4c-0.1-0.6-0.1-1.3-0.2-1.9
		c-16.6,6.2-25-5.1-34.5-14.8c1.5,12.9,15.9,21,31.8,19c-3.5,1.6-7,3.2-10.2,4.7c6,4.9,12.2,9.9,18.4,15c0.9,0.7,1.9,1.6,2.5,2.5
		c4.7,8.2,12,11.5,21.6,10.4c-1.2,7-6,8.8-12.7,9.6c10,7.5,17.9,14.9,22.5,26.5c-3.5-1.8-5.9-3-8.4-4.3c-0.3,0.4-0.6,0.8-1,1.2
		c11.5,8.9,22.2,18.3,23.7,34.4c-3.6-4.6-7.2-9.2-10.8-13.7c3.1,11.8,11.5,19.4,21.4,25.2c-5.1,8.1-7.8,0.4-11.8-0.6
		c6.3,11.3,9.2,24.2,21.2,31.2c-0.3,0.5-0.6,1-0.9,1.5c-2.7-0.1-5.5-0.3-7.7-0.4c2.9,5.9,6,12.3,9,18.6c-0.6,0.5-1.1,0.9-1.7,1.4
		c-2.6-1.6-5.3-3.3-8.3-5.1c0.8,10-4.4,20.7,6.5,28.1c-0.4,0.3-0.8,0.7-1.3,1c-2.4-1.6-4.9-3.2-6.6-4.3c1,11.9,2,24.5,3,37
		c-0.7,0.2-1.4,0.3-2.1,0.5c-1.1-2.4-2.3-4.9-3.4-7.3c-0.6,0.1-1.3,0.3-1.9,0.4c1.8,8.5,3.6,16.9,5.7,26.8c-3.3-2.4-5.6-4.1-8.3-6
		c-1.6,13.8-0.4,28.3-10.4,41.9c-0.2-4.3-0.4-7.2-0.5-10c-0.3-0.1-0.7-0.2-1-0.4c-0.6,1.8-1,3.6-1.7,5.3c-2,4.9-4,9.8-6.4,14.5
		c-3.4,6.9-7.1,13.6-4.2,21.9c-0.7,0.2-1.4,0.5-2.1,0.7c-2-3.4-4-6.8-6.8-11.4c-5.5-1.3-11.5,6.3-13.5,19.2
		c-0.6-2.2-1.3-4.5-2.1-7.5c-3.5,7-6.9,13.5-10.2,20.1c0.5,0.5,1,0.9,1.5,1.4c2.9-3,5.7-5.9,8.6-8.9c2.7,1.2,5.9,2.7,9.1,4.1
		c0.4-0.3,0.8-0.6,1.2-0.9c-4.3-8.5-3.5-15.8,4.2-22.2c2.7,5.6,5.3,11.3,14,9.1c-5.9-13.4,4.9-22.8,7.8-34.1
		c0.6,0.7,1.3,1.6,2.8,3.3c4.5-6.5,8.8-12.8,12.8-18.6c4.3,2.1,8.8,4.3,13.4,6.6c-2.4,0.2-5.3,0.4-9.4,0.7
		c11,7.5,21.1,14.7,27.6,27.7c-3.1-1.7-4.9-2.7-6.7-3.7c-0.4,0.4-0.9,0.9-1.3,1.3c3.1,3.1,5.9,6.4,9.4,9.1c3.5,2.7,7.6,4.7,11.4,8.1
		c-3,0.3-6,0.5-9.6,0.8c0.9,1.4,1.6,2.6,2.5,3.7c5.9,7.4,11.3,14.8,14.6,23.9c2.1,5.8,6.9,10.6,11,16.6c-3.1-0.7-5.8-1.4-10-2.4
		c8.7,5.8,11.5,13.1,11.3,21.8c-0.6,0.5-1.2,1.1-1.8,1.6c-1.3-2.6-2.5-5.2-3.8-7.8c-0.7,0.5-1.4,1.1-2.1,1.6
		c2.1,8.4-1.3,17.9,6.3,25.2c-5.7,1-7.2,0.1-12.9-8c1.3,9.4,1.4,17.8-4,27.3c-1.6-5.1-2.8-8.6-4.4-13.9c-1.1,12-4,21.5-12.1,29.1
		c5.4-5.1,10.4-2.1,15.9-0.8c5.1,1.2,10.7,0.3,17,0.3c-1.9,1.8-3.4,3.2-5.2,4.9c8.2,2,17.1,2.3,21.8,12c-2.9-1.4-4.9-2.3-6.9-3.2
		c-0.2,0.2-0.3,0.4-0.5,0.7c6.4,6.7,12.7,13.4,19.6,20.6c-1.5,1-3.5,2.4-5.7,3.6c-3.9,2-6,0.9-8.1-3.3c-2.1-4.3-6.2-7.6-9.4-11.3
		c-2.2-2.1-4.5-4.1-6.4-6.5c-2.8-3.5-6-4.9-11.1-3.4c10,2.7,11.1,3.7,8.8,7.7c2.8,0.9,5.6,1.7,8.4,2.6c2.7,3.5,5.5,6.9,9.3,11.7
		c-2.9-0.5-4-0.7-5.1-0.9c-0.3,0.5-0.5,1-0.8,1.5c5.4,2.8,10.9,5.5,16.4,8.4c-2,6.2-15.5,11.4-21.2,7.4c-1-0.7-1.3-2.2-2-3.3
		c-1.6-2.7-3-5.4-4.8-7.9c-1.9-2.6-4.1-5.1-6.1-7.6c-3.7-4.6-8.6-5.9-14.6-4.6c5,2,9.6,3.8,14.3,5.6c-0.2,0.5-0.3,1.1-0.5,1.6
		c-1.1,0-2.3,0-3.1,0c4.5,4,9.1,8,13.6,12.1c-0.4,0.5-0.8,1-1.1,1.6c-2-0.7-4.1-1.5-6.1-2.2c-0.2,0.4-0.4,0.8-0.6,1.3
		c5.6,2.6,11.3,5.2,17,7.9c-6,6.4-13.8,4-22.5,4.2c3.3,1.3,5.2,2.1,7.7,3.2c-8.4,4.1-16.3,2.7-23.3,0.7c-1.2,1.4-1.9,2.9-2.8,3.1
		c-8.3,1.7-16.5,3.9-25.2,0.6c-2.9-1.1-6.9,0.6-10.4,1.1c-8.8,1.1-17.5,1-26.2-3.5c1.6-1.3,2.8-2.3,3.3-2.7
		c-6.6,0.3-13.9,1.5-21,0.6c-15.1-1.8-18.6-3.5-17.6-7.4c-17,5.1-31.3-3.7-46.4-8.2c-11.4-3.4-13.5-8.6-9.1-21.6
		c-2.8-0.4-5.7-0.7-8.5-1.1c-0.1-0.5-0.3-0.9-0.4-1.4c12.9-2.9,11.1-16.1,17.2-24.2c-1.2,0.6-2.3,1.1-3.5,1.7
		c7.4-13.1,17.5-25.2,16.6-41.9c-1.3,1.7-2.7,3.5-4,5.2c3.1-13.3-3.3-23-12.8-32.9c6.9-3.9,12.9-8.4,19.6-10.9
		c4.7-1.7,6.1-4.1,5.9-8.3c10.4-2.6,22-1.3,29.4-11.6c-10.3,5.9-21.3,8.3-32.8,9.1c0.4,2.2,0.9,4.9,1.8,9.2
		c-3.2-2.4-4.8-3.6-5.3-3.9c-1.8,2-3,4.5-4.8,5.1c-5.5,1.6-11.3,2.3-18.6,3.7c3.9,0.7,6.5,1.1,9.9,1.7c-4.5,4.6-9.8,4.6-14.9,4.2
		c-5-0.4-9.9-1.4-15.3-2.2c1.5,3,2.7,5.5,4.7,9.6c-9.5-3.3-17.6-6.8-27.5-2.6c2.6,0.2,3.9,0.4,6.2,0.6c-8.5,9-11.9,18.7-9.4,30.7
		c-1.4-1.8-2.8-3.6-4.7-6.1c-2.5,9.5,4.1,16.5,6.9,24.3c-0.5,0-1,0-1.6,0.1c4.4,5.8,8.9,11.6,13.3,17.4c-0.5,0.4-1,0.8-1.4,1.2
		c-1.1-1-2.2-1.9-3.4-2.9c5.8,7.8,3.3,21.4,16.7,23.7c0,0.5,0,1-0.1,1.5c-2.9,0.6-5.8,1.2-8.6,1.8c4.5,13.6,2.2,17.6-12.5,21.8
		c-6,1.7-11.7,5-17.8,6.2c-7,1.4-14.3,1.2-21.5,1.8c-1.4,0.1-2.8,0.8-4.2,1.2c0.2,1,0.5,2.1,0.7,3.1c-13.1,1-26.2,2-39.1,3
		c0.1,0,1.3,0.6,2.8,1.4c-6.4,5-13.5,5.4-20.2,4.3c-9.6-1.6-18.9,0.3-28.4,0.1c-5-0.1-10.1-1.3-15.9-2.1c1.2-1.7,1.9-2.5,2.7-3.7
		c-8.5,2.5-16.8,4.6-25.7-0.1c3.7-1.4,6.9-2.6,10.1-3.8c-8.5-0.1-17,2.2-25.1-3.4c6.4-3,12.3-5.7,18.2-8.4c-0.2-0.4-0.3-0.8-0.5-1.3
		c-2.2,0.8-4.5,1.5-6.7,2.3c-0.4-0.4-0.8-0.8-1.2-1.2c4-3.8,8-7.7,12.2-11.6c0.5,0.3,0.2,0.1-0.1-0.1c-0.5-0.2-1.1-0.2-2.4-1.8
		c4.3-2,8.6-3.9,12.6-5.7c-6.6-1.2-10.8,0.6-14.1,6.3c-3.1,5.5-10.1,8.4-10.5,15.9c0,0.6-1.9,1.3-3,1.6c-6.1,1.9-16-2.1-20.3-8.4
		c6.7-2.1,13.9-3.5,18.5-11.4c-2.5,1.4-4.1,2.3-6.7,3.8c3.4-8.4,8.6-13.1,16.7-15.7c-1-0.8-1.8-1.6-2-1.5c-5.8,3.4-12.2,6-15.3,12.7
		c-4.2,9.1-7.8,9.4-14.1,2.2c6.2-6.7,12.4-13.3,19.7-21.2c-3.2,1.3-5,2-7.7,3.1c4.7-9.6,13.6-9.4,22-11.5c-2-1.6-3.6-2.8-4.2-3.3
		c7.4-1.2,14.9-2.8,22.5-3.5c3-0.3,6.2,1.2,10.1,2.1c-9.6-7.5-11.7-18-13.9-28.9c-1.1,4-2.2,7.9-3.4,12.3
		c-4.7-5.7-5.6-11.3-4.4-25.9c-3.3,4.9-5.5,10.4-11.3,9c1.7-8.8,3.4-17.4,5-26c-0.7-0.5-1.5-1.1-2.2-1.6c-1.3,2.8-2.6,5.6-3.9,8.4
		c-0.8-0.7-1.6-1.3-2.3-2c0-8.7,3.3-15.9,12.2-22.1c-4.5,1.2-7.1,1.8-9.8,2.5c-0.4-0.4-0.7-0.8-1.1-1.1c9.1-6.2,11.9-15.8,15.1-25.3
		c0-0.1,1.3,0.2,2.4-0.1c-9.5-5.8-16.8-12.8-14.6-25.5c-3.2,3.8-5.9,7.1-8.7,10.5c-0.6-0.3-1.3-0.6-1.9-0.9c3.5-9.6-0.2-17.7-4.1-26
		c-2.3-5-2.9-10.9-3.9-15c-1.4,1.9-3.2,4.4-5,6.8c-5.9-12.7-4.9-26.3-4.6-40.1c-2.8,1.4-5.4,2.6-9.2,4.4c3.1-9.4,5.7-17.3,8.3-25.3
		c-0.5-0.2-0.9-0.4-1.4-0.6c-1.2,2-2.5,4-4.5,7.3c-1.4-14.2,0-26.5,5.9-38.9c-3.4,1.6-6.1,2.9-8.8,4.2c-0.4-0.4-0.9-0.7-1.3-1.1
		c7.5-5.2,9.9-12.3,8.5-20.2c6,1.2,11.8,3,17.6,3.2c5.3,0.2,11.4,0.5,14.6-5.8c0.3-0.7,2.5-0.3,3.8-0.5c4.1-0.7,8.9,0.2,11-5.1
		c0.3-0.7,2.7-1.2,3.9-0.9c5,1.1,10,2.6,15.9,4.2c-1.1-3-2.1-5.7-3.2-8.7c2.7-0.4,5.6-0.4,7.9-1.4c4-1.7,8.3-3.6,11.3-6.5
		c4.9-4.7,9.4-9.5,16.9-9.3c2.2,1.2,4.4,2.4,8.1,4.5c-2.2-4.4-3.6-7.1-5.1-10.1c8-0.4,15.5-1.4,18.8-9.2c1.6-3.8,3.8-5.5,7.2-6.8
		c2.8-1,5.6-2.1,8.2-3.5c4.4-2.4,7.5-5.7,5.6-10.9c6.4-5.4,13-8.8,22.2-4.5c-0.3-4-0.5-6.6-0.8-9.5c8.5-2.2,14.1-7.9,17.9-15.7
		c0.4-0.8,1.3-1.5,2.1-2c6.7-4,11.2-9.6,12.4-17.5c16.2,4.8,35.1-3.9,36.8-16.5c-11.1,0-12.6-0.6-15.4-5.6c2.5-0.8,5.4-1.2,7.7-2.5
		c5.4-3,5.1-5.5,0.3-9.4c-3.9-3.1-7-7.1-10.5-10.7c9,0.3,12.5-1.7,14.9-9c-10.8-2.3-17.2-9.1-19.9-19.8c-0.8-3.1-3-5.9-5-8.5
		c-2.4-3.1-5.4-5.8-8.1-8.7c7.1-6.8,12.4-13.7,12.7-23.3c0.3-9-3.8-20.5-9-23.6c1.1,9.5-6.6,13.2-11.7,19c-0.9-1.4-1.6-2.5-2.4-3.7
		c-6.5,3.7-12.7,7.2-18.5,10.5c-1.5-2.2-3-4.5-5.4-7.9c-1.1,3.7-1.3,6-2.4,7.6c-1.8,2.5-4,5.7-6.6,6.4c-8.1,2.1-12.7,7.5-15.7,14.6
		c-1.6,3.8-2.5,7.9-3.5,11.3c-3.2-1.5-6.2-2.9-10.7-5c7.7,17.6-0.8,29.7-8.4,43.1c-1-2.8-1.6-4.3-2.1-5.7
		c-5.4,5.8-10.6,11.4-15.7,16.8c-2.8-3.4-4.9-5.8-7.8-9.2c-3,13-16.4,9.7-21.6,18.4c-0.9-2.3-1.3-3.5-1.4-3.6
		c-7.7,3.9-15.2,7.6-21.7,10.9c6.8,1.9,12.9-2.8,19.5-7.7c-0.5,3.2-0.9,5.4-1.4,8.9c6.5-6.8,11.7-13.2,20.9-15.4
		c-1.2,2.5-2.1,4.3-2.9,6.1c0.4,0.2,0.8,0.5,1.2,0.7c2.8-4.3,5.7-8.6,8.9-13.5c1.2,2.8,2.2,5.2,3.6,8.4c3.4-2.6,6.7-4.7,9.4-7.4
		c2.8-2.8,5-6.2,8.1-10.2c0.2,3.1,0.4,5,0.5,7c11.9-6.5,18.6-26.2,14.7-45c3.1,3.4,5.2,5.8,7.5,8.4c1.9-5.5,3.5-10.9,5.6-16.1
		c2.2-5.6,6.1-9.7,12.5-12c-1.5,3.8-2.7,6.9-3.9,10.1c0.3,0.1,0.6,0.3,0.9,0.4c4.7-7.6,9.4-15.3,14.3-23.1c0.1,2.5,0.3,4.9,0.4,7.9
		c7-4.3,13.6-8.4,20.6-12.8c0.4,1.7,0.7,3,1,4.2c12-7,15.7-11.2,15.9-19.1c4.3,7.3,3.2,14.1,0.1,22.4c2.3-2,3.3-3,5.2-4.7
		c-1.8,9.4-5.2,16.7-11,22.8c-0.9,0.9-3.5,0.7-5.1,0.2c-5.5-1.6-10.9-2.1-17.5,1.1c8.9,0.5,17.1-0.9,23.4,6c-2,0.1-3.6,0.3-6.8,0.5
		c8.4,3.5,16.3,5.7,18.4,15.1c-1.5-0.4-2.7-0.7-4.8-1.3c7.3,8.2,11.2,18.5,23.2,19.7c-4.7,6.5-9.9,6.9-14.9,1.8c-1.2-1.2-2.6-2-4-3
		c0.8-6.3-5.5-11.5-11.7-11.2c3.4,3.2,7.6,7.2,11.8,11.2c0.2,0.3,0.4,0.6,0.6,0.9c0,0.1-0.2,0.4-0.3,0.4c-1.1-0.3-2.2-0.6-3.3-0.9
		c6.7,8.3,13.2,16.4,19.9,24.8c-3.4,4.1-9.9,5.5-12.3,1.5c-2.5-4.3-4.8-8.9-6.7-13.6c-4.3-10.4-17.2-14.2-24.5-6.9
		c11.7-2.4,19.1,0.5,21.5,8.3c-1.2-0.2-2.5-0.5-4.2-0.8c3.7,4.8,11.1,6.3,10.3,14.4c2.2,2.5,4.4,6.7,7.9,8.8
		c3.5,2.1,8.2,2.2,14.5,3.7c-5,2.8-10.6,4-12.3,7.2c-3.4,6.7-8.8,5-13.6,5c-5.7,0-10.4-2.4-10.2-9.8c-2.5,6.3-3.9,12.4-7.2,17.3
		c-3.3,5-8.4,8.9-12.7,13.1c0,0,0.9,0.4,3.9,1.8c-9,5.3-16.7,9.9-24.1,14.3c1.5,1,3.6,2.6,5.8,4.1c-0.1,0.6-0.2,1.1-0.4,1.7
		c-10.9-3.4-17.6,3.7-25.6,9.2c1.9,0.8,3.3,1.4,6.5,2.7c-10.8,5.2-20.1,9.8-29.5,14.3c0.1,0.4,0.2,0.7,0.3,1.1
		c1.7,0.2,3.3,0.3,5.4,0.5c-5.7,9-15.2,7.6-23.4,9.7c2.8,2,5.2,3.7,8.4,5.9c-2.3,0.4-3.3,0.5-4.2,0.7c-6.5-3.3-11.6-0.2-15.6,4.2
		c-7.1,8-15.7,11.6-27.2,11.8c2.6,1.5,5.2,3.1,7.8,4.6c-0.5,0.4-0.9,0.8-1.4,1.1c-6.9-0.6-13.9-1.2-21.6-1.9
		c0.6,1.8,0.9,2.9,1.8,5.5c-7.6-0.7-14.5-1.4-22.1-2.1c2.6,1.8,5,3.4,7.9,5.4c-6.7,3.6-13.3,4.6-19.5,1.6
		c-5.7-2.8-10.8-6.8-15.4-9.9c-0.8,2.9-1.9,6.7-3,10.4c-6.6-10.3-12.6-19.8-19-29.9c0.2,2.9,0.4,5.3,0.7,8.9
		c-12.7-7.1-12.2-18.8-13.2-30.1c-4.1,7.2-4.1,7.2-8.8,6.7c2.7-10.6,5.4-21.4,8.4-33.1c-2,1.9-3.3,3.2-5.1,4.9
		c-1.5-8.9,3.6-14.7,7.4-21.5c-1.7,1-3.3,2-5,3.1c1-10,4.4-15.2,15-23.7c-4-1.1-8.9-2.5-13.7-3.8c0-0.9-0.1-1.7-0.1-2.6
		c10.9,1.2,19.8-1.8,26.9-11.7c-2.5,0.7-3.7,1.1-5.5,1.6c4.6-16.1,18.8-20.3,30.8-27.2c-2.8-2.2-5.9-4.5-8.9-6.9
		c-0.1-0.6-0.1-1.2-0.2-1.8c11.3,3.3,16.7-3.5,22.3-11.6c-2.7,1-4.9,1.8-8.1,3c4.9-13.1,16.4-17.3,25.9-23.8
		c-3.2,0.6-6.4,1.1-9.7,1.7c0.5-5.9,1.1-6.4,16.2-12.7c-4.4-1.7-8.5-3.2-12.6-4.8c0-0.5,0.1-1,0.1-1.4c8.1,2,12.6-2,16.1-8.5
		c2-3.7,5.2-6.8,7.4-9.6c-3.6-0.7-7.5-1.5-11.5-2.3c-0.2-0.5-0.3-1.1-0.5-1.6c16.1-2.2,14.3-17,19.4-27.1c-2,1.6-4,3.1-5.9,4.7
		c-0.5-0.3-1-0.6-1.5-0.9c2.9-5.9,5.8-11.7,8.6-17.3c-2.8,0.2-6.2,0.5-8.8,0.7c4-8.6,7.9-17,12.2-26c-3.2,0.5-5.5,0.9-8.3,1.3
		c2.3-6.2,4.5-11.7,6.2-17.3c0.4-1.2-0.9-3-1.6-4.3c-2.3-3.9-5.3-7.4-6.8-11.5c-1.5-4.1-1.5-8.7-2.3-14.2c-2.4,2.7-4.3,4.9-5.5,6.3
		c-1.9-9.8-3.9-20.1-6-30.9c-0.9,1.5-1.8,3-2.9,5c-2-9.5,0.3-17.3,6.5-23.7c-3-1.5-5.6-2.9-7.9-4.1c7.1-3.4,13.4-6.4,19.7-9.4
		c-0.2-0.6-0.5-1.2-0.7-1.8c-2.1-0.2-4.1-0.3-6.2-0.5c-0.2-0.6-0.4-1.2-0.6-1.8c5.4-2.4,10.9-4.9,15.9-7.1c-1-0.8-2.7-2.1-4.5-3.5
		c0.1-0.3,0.3-0.7,0.4-1c5.4,0.7,10.9,1.4,16.3,2.1c1,0.7,2.1,1.5,3.1,2.2c5,3.2,9.3,3.8,11.7,4c9.6,0.5,17.5-5.6,22.7-9.5
		c1.5-1.1,2.7-2.2,3.5-2.8C342.1,70.9,358.7,80.2,373.5,72.3z M242.3,566.7c-0.5-1-1.6-2.2-1.4-2.9c1.6-4.2,3.9-8.2,5.1-12.5
		c0.9-3.4,0.6-7.1,0.8-10.7c-2,4.3-2.8,8.5-4.1,12.4c-1.3,4.1-3.2,8-4.6,12c-0.4,1,0.3,2.4,0.5,3.6c1.3-0.5,2.6-1.1,3.9-1.6
		c2-1.3,4-2.7,6.9-4.5c-0.4,8.5-5.6,16.3-0.8,23.4c0.8-8.9,1.6-18.2,2.4-27.5c-0.5-0.1-1.1-0.2-1.6-0.2
		C247,561.1,244.6,563.9,242.3,566.7z M393.1,691.1c1.8,2.6,3.5,5.2,5.3,7.8c0.7-0.1,1.3-0.3,2-0.4c-0.4-3.5-0.7-6.9-1.1-10.4
		c-0.5,0-1,0.1-1.5,0.1c0,1.7,0,3.3,0,5.1c-1.8-0.8-3.3-1.5-4.8-2.2c-3.8-4.6-9.1-4.6-14.4-4.4c-3.3,0.2-6.9,0.8-9.8-0.3
		c-7.2-2.8-14.1-6.4-20.8-9.5c1.2,2,2.9,4.9,4.7,7.9c-0.3,0.4-0.6,0.8-0.9,1.2c-5.9-3-11.8-6-17.8-9c-0.7,0.6-1.3,1.3-2,1.9
		c1.9,0.9,4.1,1.4,5.6,2.8c8.2,7,18.6,5.1,27.9,7.1C374.5,690.7,384.2,686.9,393.1,691.1z M273.7,123.4c1,0.3,2.4,1.2,3.5,0.9
		c7.7-2,10.9,3.5,14.3,8.4c2.1,3.1,3.3,6.8,5.5,9.8c4.3,5.8,8.4,11.9,13.6,16.7c9,8.3,20.5,12.2,32.6,12.1c12.6-0.1,25-1.5,36.3-9
		c11.1-7.4,18.6-16.7,22.2-29.5c0.7-2.4,1.5-4.8,2.1-6.7c4.1,0.2,7.6,0.8,11,0.5c1.7-0.1,4.1-1.3,4.7-2.7c0.6-1.2-0.4-4.4-1.6-4.9
		c-4-2-8.3-3.2-13.4-5c0.5-2.9,0.1-8.1,2.4-11.5c2.2-3.2,7.2-4.5,11.5-7c-6,0.4-11,0.7-14.5,0.9c-2.3,1.9-3.5,3.9-4.8,3.9
		c-6.3,0.2-12.7-0.2-19-0.4c-0.5,0-1.1,0.1-1.6,0.1c-0.5,0.5-0.9,1.1-1.4,1.6c1.6,0.4,3.2,0.8,4.8,1.2c-19.3,2.4-37.9,3-54.8,12.5
		c-0.1-0.5-0.2-1-0.3-1.6c0.5-0.9,1-1.8,1.3-2.5c-4.5,2.5-9,4.9-13.5,7.3c-0.3-0.4-0.5-0.9-0.8-1.3c0.4-0.9,0.9-1.8,1.8-3.6
		c-8.9,4.5-16.6,9.9-26.5,8.4c1.2-2.1,2-3.8,2.5-4.6C285.8,119.4,279.9,121.4,273.7,123.4z M552.8,508.7c-0.6,0.2-1.1,0.5-1.7,0.7
		c3.3,9.3,6.7,18.6,10.1,28c3-8.5-2.9-15.3-6.1-22.6c4.7-0.5,8.2,6.2,12.8,0.7c-5.5-8.2-10.9-16.3-16.1-24.2c-1.7,3.8,0.4,8,3,11.8
		c2.6,3.8,5.8,7.2,8.7,10.8c-0.3,0.3-0.6,0.6-0.9,0.9C559.3,512.8,556,510.8,552.8,508.7z M530.7,586.4c0.1,0.3,0.2,0.5,0.3,0.8
		c2.6-3.2,5.2-6.3,7.8-9.5c1-1.2,2-2.9,3.3-3.4c6.4-2.3,9.9-6.6,10.5-13.7c0.5-6.1-0.6-9.7-3.6-12.2c-0.2,17.3-1.4,20.8-7.6,22.2
		c-0.4-2.1-0.8-4.2-1.3-6.7C536.9,571.9,533.8,579.1,530.7,586.4z M296.2,256.1c-0.5-0.2-0.9-0.4-1.4-0.6c0.7-2.4,1.1-4.8,2.1-7.1
		c1.9-4.5,4.4-8.8,6.2-13.4c1.8-4.8,1-6.6-1.1-7.9c-1.3,4.5-2.6,9.6-4.2,14.6c-1.8,5.7-3.9,11.3-5.9,17c0.6,0.2,1.2,0.5,1.8,0.7
		c2.1-1.2,4.1-2.4,7.2-4.3c-2.5,6-4.6,10.9-6.7,15.8c4.2-7.1,10.5-13.3,9.9-23.5C301.1,250.8,298.7,253.5,296.2,256.1z M520.6,609.1
		c3.4-0.4,7.6,0.1,10.9-1.4c3.7-1.7,7.2-4.8,9.7-8.1c2.1-2.9,2.7-6.9,4-10.5c-0.4-0.1-0.8-0.2-1.2-0.2c-3.9,5.5-7.8,11.1-11.7,16.6
		c-0.6-0.4-1.2-0.7-1.9-1.1c0.8-3,1.6-6,2.3-9c-0.4-0.2-0.8-0.4-1.2-0.6C527.9,599.7,524.2,604.5,520.6,609.1z M262.2,596
		c0,1.8-0.1,3.5,0,5.3c0.7,9.9,5.8,15.2,15.3,16.4c1.4,0.2,2.5,2,3.9,3c3,2.1,6,4.1,8.9,6.1c-4.6-6-9.1-11.8-13.5-17.5
		c0.1,1.8,0.2,3.8,0.4,6.7C266.4,612.7,265.7,603.5,262.2,596z M485.8,629.3c0.2,0.4,0.3,0.8,0.5,1.2c3.4-1.8,6.9-3.6,9.7-5.1
		c1.3,1.7,2.5,3.3,3.8,5c1.6-1.3,3.7-2.3,4.6-4c1.8-3.4,2.9-7.1,4.3-10.7c-0.4-0.2-0.9-0.3-1.3-0.5c-2.2,4-4.4,8-6.6,12.1
		c-0.4-0.1-0.9-0.2-1.3-0.3c0-3,0-5.9,0-10C494.2,621.8,490,625.5,485.8,629.3z M293,635.7c-0.3,0.2-0.6,0.5-0.9,0.7
		c1.5,2.6,3.1,5.3,4.6,7.9c-0.6,0.6-1.3,1.2-1.9,1.8c-5.1-4.1-10.3-8.3-14.9-12c1.5,6.3,8.8,13.3,15.1,13.2
		c3.7-0.1,7.3-1.2,10.3-1.8C301.5,642.5,297.3,639.1,293,635.7z M214.6,448.7c1.2,7.5,4.4,13.8,11.8,16.7c1.7,0.7,3.9,0.1,5.8,0.1
		c0-0.4,0.1-0.9,0.1-1.3c3.2,1.2,6.4,2.3,9.6,3.5c0.1-0.2,0.2-0.5,0.2-0.7c-4.5-2.9-9-5.7-13.7-8.6c0,1.8,0,3.5,0,5.2
		c-0.5,0.3-1.1,0.6-1.6,0.9C222.7,459.2,218.6,453.9,214.6,448.7z M548.9,307.2c0.4,0,0.9,0,1.3,0c0-5.4,0-10.9,0-16.3
		c-0.4,0-0.8,0-1.1,0c0,3.2,0,6.4,0,10.5c-2.5-3.8-4.6-6.9-6.6-10c-0.4,0.2-0.8,0.4-1.2,0.5c0,3.1,0,6.2,0,9.3
		c0.2,0,0.4,0.1,0.7,0.1c0.3-1.4,0.5-2.7,1.1-5.5C545.4,300.4,547.1,303.8,548.9,307.2z M609.1,359.4c3.8-1.6,6.9-4.1,7.4-8.4
		c0.2-1.6-1.9-3.4-3.2-5.7c2-2.9,5.2-6.5,4-11.1c-3.2,5.4-6.3,10.7-9.4,16c2.1,0,4,0,6,0C612.3,353.2,610.8,356.1,609.1,359.4z
		 M401.5,237.7c4.5,0,7.7,0,11.9,0c-3.7-3.5-6.5-6.1-9.3-8.7c-0.2,0.1-0.4,0.3-0.6,0.4c1.2,2.1,2.3,4.1,4,7.2
		c-2.9-1.1-4.9-1.9-7.8-2.9c0.7,6.6,2.6,11.4,8.9,14C406.3,244.5,404.2,241.6,401.5,237.7z M322.6,649.7c-0.5,0.3-1,0.5-1.4,0.8
		c1.6,2.3,3,4.9,5,6.8c1.6,1.5,3.9,2.2,6,3.3c0.8-2,1.7-3.9,2.5-5.9c3,0.7,6.5,1.6,9.9,2.5c0-0.3,0.1-0.6,0.1-0.9
		c-4.7-2.3-9.3-4.6-14.5-7.2c1,3.6,1.7,6.3,2.4,9c-0.7,0.5-1.4,1.1-2.1,1.6C327.9,656.3,325.3,653,322.6,649.7z M420.4,198.5
		c3.4-2.6,7.8-4.4,7.8-6.3c0-4.4-3.4-6.8-8.2-7.1c-4.9-0.3-8.7,2.4-8.9,6.2C410.9,193.2,416.4,195.5,420.4,198.5z M312.6,192.6
		c-4.9-4-8.9-7.2-13.1-10.6c-0.1,1.8-0.2,3.1-0.2,4.4c-0.5,0.3-1,0.6-1.5,0.9c-2.7-3.2-5.3-6.4-7.7-9.3c-0.3,5.2,2.9,11.2,7.4,10.7
		C302.9,187.9,306.8,190.9,312.6,192.6z M278.1,727.8c-0.8-8.3-1.7-18.1-2.7-28.4C271,710.1,272.9,722.8,278.1,727.8z M189.4,442.9
		c0-4.5-0.2-7.6,0.1-10.7c0.3-2.9,1.2-5.8,1.8-8.6c-6.3,7.6-6.3,14.6-0.2,24.1c1.1-2.5,2-4.5,2.9-6.5c-0.4-0.2-0.9-0.4-1.3-0.6
		C191.9,441.2,191.1,441.7,189.4,442.9z M298,664.6c-6.9-4.6-13.4-9-19.9-13.3C282.5,658.9,288.7,663.7,298,664.6z M571.3,198.8
		c-4.7,8.4-5.1,16-2.2,23.6C569.7,215.2,570.4,207.8,571.3,198.8z M565.3,238c0.6-0.2,1.1-0.4,1.7-0.6c-1.9-5.8-3.9-11.6-5.8-17.5
		c-0.7,0.3-1.5,0.5-2.2,0.8C561.1,226.5,563.2,232.3,565.3,238z M531.8,767.7c6.8,0.4,13.2-3.8,14.2-9.8
		C541.2,761.3,536.3,764.7,531.8,767.7z M613.9,721c0.3,0.1,0.7,0.2,1,0.2c0-7.2,0-14.4,0-21.6c-0.3,0-0.7,0-1,0
		C613.9,706.7,613.9,713.8,613.9,721z M606.1,376.8c-4.7,2.5-9.4,4.9-14,7.3C598,384.6,603.2,382.9,606.1,376.8z M408.7,188.5
		c-5.3,7.2-6.3,13.5-3.4,17.6C406.4,200.5,407.6,194.5,408.7,188.5z M328.8,195.7c0.3-0.5,0.5-0.9,0.8-1.4
		c-5.5-2.6-11.1-5.3-16.6-7.9c-0.3,0.6-0.5,1.1-0.8,1.7C317.8,190.6,323.3,193.2,328.8,195.7z M342.6,758.5
		c3.7,6.8,8.5,9.8,15.2,10.2C353,765.4,348.3,762.3,342.6,758.5z M380.7,188c-4.4,2.5-8.8,5-13.5,7.7
		C374.4,197.4,377.6,192.7,380.7,188z M556.5,761.4c-0.6-0.7-1.3-1.4-1.9-2.1c-2.7,3.2-5.4,6.5-8,9.7c0.1,0.2,0.2,0.3,0.3,0.5
		C550.1,766.8,553.3,764.1,556.5,761.4z M605.5,723.2c-0.5-0.2-1-0.4-1.6-0.6c-2.1,5.3-4.2,10.5-6.3,15.8c0.6,0.2,1.1,0.5,1.7,0.7
		C601.4,733.8,603.5,728.5,605.5,723.2z M411.9,310.6c-5.6-4.3-10.1-4.5-14.6-0.9C401.8,309.9,406.9,310.3,411.9,310.6z
		 M546.5,443.7c2.3,2.6,5.6,6.3,7.9,9C553,449.1,551,444.2,546.5,443.7z M564.5,158.8c-1.7-5-2.6-9.5,2.6-13.2
		c0.7-0.5,1-2.8,0.5-3.7c-0.4-0.9-2.1-1.3-3.3-1.5c-7.9-1.1-14.5,2.3-20.7,6.6c-0.4,0.3-0.5,0.9-1.2,2c2.2-0.8,3.6-1.3,5-1.8
		c-7.4,5.2-8.2,19.1-22.1,15.2c8.1,14.6,17.9,7.4,27.3,3.5c0.2,0.5,0.3,1,0.5,1.5c-1.4,1-2.9,2-4.3,2.9c2.1,0.4,3.7,0,4.9-0.7
		c3.4-1.9,6.7-4,10-6.1c0,0,0.1-0.4,0.1-0.4C564.1,161.7,565,160,564.5,158.8z M522.2,149.5c0,1.1,0,2.3,0,3.7
		c2.5-1,4.7-1.8,6.8-2.6c0.1,0.3,0.3,0.6,0.4,0.9c-2.3,1-4.6,2-6.8,2.9c-2.8,1.1-7-0.9-8.1,3.8c-1.5-0.6-2.9-1.1-4.4-1.7l0.2,0.2
		c-1.3,0-2.5,0-3.8,0c0.2,10.5,10.2,16.5,19.2,11.7c-1.1-2.2-2.2-4.3-3.5-7.1c2,0,3.2-0.1,4.3,0c4.9,0.4,13.3-6.2,14.7-10.7
		c0.8-2.8,2.3-6.2,4.6-7.6c4.7-2.8,10.1-4.5,15.2-6.6c-3.4-6.7-15.6-7.3-20.7-0.5c1.4,0.4,2.9,0.7,2.9,0.7
		c-6.7,4.1-13.9,8.6-21.1,13.1L522.2,149.5z M519.7,149.5c0.8,0,1.7,0,2.5,0l-0.2,0.2c3.8-3.7,7.3-7.6,11.4-10.9
		c2.9-2.3,6.6-3.7,5.1-8.4c-0.7-2.4-1.6-4.8-2.6-7.2c-0.2-0.4-0.9-0.6-1.5-0.9c-0.7,1.6-1.3,3-2.5,5.9c-0.7-5.7-1.5-9.7-1.6-13.8
		c-0.1-4.2,0.4-8.4,0.6-12.9c-7.2,2.7-8.1,8.8-9.2,15.2c-1.3,7.6,6.8,9.7,8.7,15.2c-0.5,0.3-0.9,0.7-1.4,1
		c-3.9-4.6-7.8-9.2-11.8-13.9c-0.3,1.9-0.7,4-1.1,6.1c-1.5,8.6,0.9,16.6,3.7,24.6L519.7,149.5z"/>
	<path class="st2" d="M510.4,156.8c-1.5-1.2-3-2.3-4.6-3.6c-2.5,4.3-2.8,8.8,0.4,12.9c4.4,5.5,10.5,6.1,17.1,5.3
		c3.1-0.4,6.3,0.2,10.2,0.4c-6.3,11.8-13.5,20.6-25,23.9c-8.6,2.5-17.6,3.8-26.5,5.3c-2.4,0.4-5.4,0.1-7.4-1.1
		c-8-4.5-15.7-9.5-23.4-14.4c-1.4-0.9-2.5-2.6-3.2-4.2c-3.3-7.1-6.5-14.3-9.4-21.5c-0.8-1.9-0.9-4.3-0.9-6.4c0-5,3.3-7.5,8.2-6.3
		c9.8,2.3,12.3,0.1,11.3-9.8c8.9-4.3,8.8-4.3,8.5-14.1c-0.1-1.7,1.4-3.4,2-5.2c1-3.3,1.3-7.1,3-10c1.7-2.8,4.5-6,7.4-6.8
		c3.7-1,8.1-0.1,12.1,0.5c5.9,1,11.7,2.9,17.6,3.6c7.4,0.8,12.2,4.1,12.8,8.1c-2.4,3.2-4.6,4.9-5.3,7.1c-2.9,10.4-2.8,20.5,4.7,29.3
		l-0.2-0.2c-1.2,1.7-2.2,3.8-3.8,5.1c-1.6,1.2-3.8,1.4-5.8,2.1L510.4,156.8z M463.5,162.4c2.4-9.2,1.2-13.3-3.9-14.2
		c-5.2-1-6.5,3.8-6.5,6.4C453.1,160.8,459.3,160.2,463.5,162.4z M498.1,147c-3.2-2.4-5-3.8-6.9-5.2c-1.6,2.2-3.6,4.1-4.4,6.6
		c-0.2,0.7,3.2,3.5,5.1,3.6C493.5,152,495.2,149.5,498.1,147z M504.7,124.2c-2.9,2.4-4.6,3.8-6.3,5.2c1.5,1.8,3,5,4.4,5
		c2-0.1,4.3-2.3,5.5-4.3C508.8,129.4,506.4,126.9,504.7,124.2z M479.3,115.2c-2.8,1.9-4.9,3.3-7,4.7c2.7,1.4,5.3,3.3,8.2,4
		c0.9,0.2,3.8-3,3.5-4C483.6,118.2,481.3,117,479.3,115.2z M504.7,178.5c0.2,1,0.4,1.9,0.6,2.9c2.8,0,5.7,0,8.5,0
		c-0.6-1.9-1.2-3.8-1.8-5.7C509.6,176.7,507.2,177.6,504.7,178.5z M477.9,182.3c0.4,0.9,0.8,1.9,1.2,2.8c2.3-0.6,4.6-1.2,6.9-1.8
		c-0.7-1.6-1.4-3.2-2-4.8C481.9,179.8,479.9,181,477.9,182.3z M405.6,153.3c4,0,8,0,12,0c0.2-0.8,0.4-1.6,0.5-2.4
		c-2.8-1.3-5.5-3.4-8.4-3.7c-1.5-0.2-3.4,2.7-5.1,4.1C405,152,405.3,152.7,405.6,153.3z M446.3,104c4.1,0,8.3,0,12.4,0
		c0.2-0.8,0.4-1.7,0.6-2.5c-3-1.4-5.9-3.4-9-3.8c-1.4-0.2-3.2,2.9-4.8,4.5C445.8,102.7,446,103.4,446.3,104z M355.5,136.6
		c-3.3-2.5-6.2-5.6-9.8-7.1c-6.5-2.8-10,2.5-13.6,7.1C340.6,142.9,349.1,143.2,355.5,136.6z M374.4,162.2c-3-1.4-5.9-3.4-9-3.9
		c-1.4-0.2-3.2,2.9-4.8,4.5c0.2,0.7,0.5,1.3,0.7,2c4.1,0,8.1,0,12.2,0C373.8,163.9,374.1,163,374.4,162.2z M419.2,121.7
		c-3.8-1.7-6.6-3.7-9.5-4c-1.6-0.1-3.4,2.7-5.6,4.6C409.5,125.4,413.6,126.5,419.2,121.7z M427.2,191.1c-2.9-1.5-5.8-3.6-8.9-4.1
		c-1.3-0.2-3.1,3-4.7,4.6c0.3,0.6,0.5,1.3,0.8,1.9c4,0,8,0,12.1,0C426.7,192.7,427,191.9,427.2,191.1z"/>
</g>
</svg>
